<svg xmlns="http://www.w3.org/2000/svg" fill="none" viewBox="0 0 46 45">
  <g fill="#fff" clip-path="url(#auto-icon-clip-path)">
    <path d="M22.474 24.808a.651.651 0 0 1-.558-.316L20.5 22.111a.653.653 0 0 1 .225-.89.653.653 0 0 1 .89.224l.86 1.448 1.647-2.757a.652.652 0 0 1 .89-.225.652.652 0 0 1 .225.89l-2.204 3.691a.651.651 0 0 1-.558.316Z"/>
    <path d="M27.488 28.097h-9.603a.647.647 0 0 1-.649-.648v-9.604c0-.358.29-.648.649-.648h9.603c.359 0 .648.29.648.648v9.604c0 .358-.29.648-.648.648ZM18.533 26.8h8.307v-8.306h-8.307V26.8Z"/>
    <path d="M32.795 33.47H12.438a.647.647 0 0 1-.648-.65V12.47c0-.359.29-.649.648-.649h20.357c.358 0 .648.29.648.649v20.356c0 .359-.29.648-.648.648v-.004Zm-19.708-1.297h19.06V13.116h-19.06v19.06-.005ZM7.905 8.553H.648A.647.647 0 0 1 0 7.905V.648C0 .29.29 0 .648 0h7.257c.359 0 .648.29.648.648v7.257c0 .359-.29.648-.648.648ZM1.297 7.257h5.96v-5.96h-5.96v5.96ZM44.546 8.553H37.29a.647.647 0 0 1-.648-.648V.648c0-.358.29-.648.648-.648h7.256c.36 0 .649.29.649.648v7.257c0 .359-.29.648-.649.648Zm-6.608-1.296h5.96v-5.96h-5.96v5.96ZM7.909 45H.652a.647.647 0 0 1-.648-.648v-7.257c0-.358.29-.648.648-.648H7.91c.358 0 .648.29.648.648v7.257c0 .358-.29.648-.648.648ZM1.3 43.703h5.96v-5.96H1.3v5.96ZM44.55 45h-7.256a.647.647 0 0 1-.648-.648v-7.257c0-.358.29-.648.648-.648h7.256c.359 0 .649.29.649.648v7.257c0 .358-.29.648-.649.648Zm-6.608-1.297h5.96v-5.96h-5.96v5.96Z"/>
    <path d="M32.959 12.866a.652.652 0 0 1-.459-.19.652.652 0 0 1 0-.916l4.331-4.313a.652.652 0 0 1 .916 0c.251.255.251.665 0 .916l-4.33 4.313a.652.652 0 0 1-.458.19ZM37.25 37.9a.652.652 0 0 1-.458-.191l-4.33-4.313a.644.644 0 0 1 0-.917.644.644 0 0 1 .916 0l4.33 4.314a.644.644 0 0 1 0 .916.652.652 0 0 1-.457.19ZM12.17 12.866a.652.652 0 0 1-.458-.19l-4.33-4.313a.644.644 0 0 1 0-.916.644.644 0 0 1 .916 0l4.33 4.313a.644.644 0 0 1 0 .916.652.652 0 0 1-.458.19ZM7.875 37.9a.652.652 0 0 1-.458-.191.652.652 0 0 1 0-.916l4.33-4.314a.652.652 0 0 1 .916 0c.251.255.251.666 0 .917l-4.33 4.313a.652.652 0 0 1-.458.19ZM22.6 12.866a.647.647 0 0 1-.649-.648V7.084a.647.647 0 1 1 1.297 0v5.134c0 .359-.29.648-.649.648Z"/>
    <path d="M22.578 7.257a2.983 2.983 0 1 1 0-5.963 2.983 2.983 0 0 1 0 5.963Zm0-4.664c-.93 0-1.686.757-1.686 1.686 0 .929.757 1.685 1.686 1.685.93 0 1.685-.756 1.685-1.685 0-.93-.756-1.686-1.685-1.686ZM22.6 38.863a.647.647 0 0 1-.649-.648V33.08a.647.647 0 1 1 1.297 0v5.135c0 .358-.29.648-.649.648Z"/>
    <path d="M22.578 44.006a2.983 2.983 0 1 1 0-5.963 2.983 2.983 0 0 1 0 5.963Zm0-4.663c-.93 0-1.686.756-1.686 1.685 0 .93.757 1.686 1.686 1.686.93 0 1.685-.757 1.685-1.686 0-.93-.756-1.685-1.685-1.685ZM38.145 23.321h-5.134a.647.647 0 1 1 0-1.296h5.134a.647.647 0 1 1 0 1.296Z"/>
    <path d="M40.95 25.633a2.983 2.983 0 1 1 .001-5.963 2.983 2.983 0 0 1-.001 5.963Zm0-4.663c-.93 0-1.686.756-1.686 1.686 0 .929.757 1.685 1.686 1.685.93 0 1.685-.756 1.685-1.685 0-.93-.756-1.686-1.685-1.686ZM12.149 23.321H7.015a.647.647 0 1 1 0-1.296h5.134a.647.647 0 1 1 0 1.296Z"/>
    <path d="M4.205 25.633a2.983 2.983 0 1 1 0-5.963 2.983 2.983 0 0 1 0 5.963Zm0-4.663c-.93 0-1.686.756-1.686 1.686 0 .929.757 1.685 1.686 1.685.929 0 1.685-.756 1.685-1.685 0-.93-.756-1.686-1.685-1.686Z"/>
  </g>
  <defs>
    <clipPath id="auto-icon-clip-path">
      <path fill="#fff" d="M0 0h45.199v45H0z"/>
    </clipPath>
  </defs>
</svg>