<svg xmlns="http://www.w3.org/2000/svg" fill="none" viewBox="0 0 111 19">
  <path fill="#fff" fill-rule="evenodd" d="M3.7 10.031v5.472h3.57c2.196 0 2.746 0 3.707-.651.55-.391.961-1.043.961-1.955 0-.39-.137-.912-.412-1.433-.824-1.563-3.02-1.563-4.257-1.563l-3.57.13Zm0-7.165v4.69H7.131c.961 0 1.785 0 2.472-.39.824-.392 1.373-1.043 1.373-1.955 0-.782-.412-1.433-1.099-1.824-.824-.39-1.235-.39-3.844-.521H3.699ZM-.01 0h7.003c2.61 0 3.296 0 4.257.26 1.922.522 3.433 2.215 3.433 4.3 0 .782-.275 1.824-.824 2.475-.687.782-1.373 1.173-2.472 1.303 2.197.39 4.257 2.085 4.257 4.95 0 2.216-1.098 4.04-3.57 4.821-1.236.391-2.197.391-4.394.391H-.01V0ZM29.786 11.902l-2.69-8.538-2.689 8.538h5.379Zm.941 2.976h-7.26L22.39 18.5h-3.9L24.945 0h4.034l6.59 18.5h-3.9l-.942-3.622ZM44.754 2.997v5.862H48.247c.776 0 3.234-.13 3.234-2.866 0-.39 0-1.824-1.423-2.475-.776-.39-1.682-.39-3.622-.39h-1.682v-.131ZM41.26 0h5.95c2.459 0 4.14 0 5.693 1.303 1.164.912 2.07 2.475 2.07 4.56 0 3.517-2.587 4.82-3.622 5.08l4.14 7.557H51.48l-3.622-6.905h-3.105V18.5H41.26V0ZM64.645 2.997v5.862H68.108c.77 0 3.205-.13 3.205-2.866 0-.39 0-1.824-1.41-2.475-.77-.39-1.667-.39-3.59-.39h-1.666v-.131ZM61.313 0h5.897c2.436 0 4.103 0 5.641 1.303 1.154.912 2.052 2.475 2.052 4.56 0 3.517-2.565 4.82-3.59 5.08l4.102 7.557H71.44l-3.59-6.905h-3.205V18.5h-3.461L61.312 0ZM84.564 3.105v4.399h9.177v2.975h-9.177v4.916h10.773V18.5h-14.23V0h13.565v3.105H84.564ZM103.266 15.417h7.725V18.5H99.606V0h3.66v15.417Z" clip-rule="evenodd"/>
</svg>