<svg xmlns="http://www.w3.org/2000/svg" fill="none" viewBox="0 0 46 45">
  <g fill="#fff" clip-path="url(#cdn-icon-clip-path)">
    <path d="M44.748 45H.644a.652.652 0 0 1-.653-.653V7.103c0-.361.292-.653.653-.653h44.104c.36 0 .652.292.652.653v37.244a.652.652 0 0 1-.652.653ZM1.297 43.694h42.798V7.756H1.297v35.938Z"/>
    <path d="M44.748 7.756H.644a.652.652 0 0 1-.653-.653V.653C-.009.292.283 0 .644 0h44.104c.36 0 .652.292.652.653v6.45a.652.652 0 0 1-.652.653ZM1.297 6.45h42.798V1.306H1.297V6.45Z"/>
    <path d="M4.039 4.53a.66.66 0 0 1-.462-.19.66.66 0 0 1-.191-.462c0-.043 0-.087.013-.126a.57.57 0 0 1 .039-.122.55.55 0 0 1 .057-.113c.026-.035.052-.07.082-.1a.674.674 0 0 1 .923 0c.03.03.057.065.083.1a.935.935 0 0 1 .06.113c.014.04.027.078.035.122a.66.66 0 0 1-.178.588.66.66 0 0 1-.461.19ZM8.718 3.878a.652.652 0 1 1 1.307-.002.652.652 0 0 1-1.307.002ZM14.707 4.53a.664.664 0 0 1-.366-.108c-.035-.026-.07-.052-.096-.083a.652.652 0 0 1 0-.922.55.55 0 0 1 .209-.14.66.66 0 0 1 .714.14.66.66 0 0 1 .191.461c0 .17-.07.34-.191.461a.66.66 0 0 1-.461.192ZM15.782 18.141h-6.31a.652.652 0 0 1-.654-.653v-6.31c0-.362.292-.654.653-.654h6.311c.361 0 .653.292.653.653v6.311a.652.652 0 0 1-.653.653Zm-5.658-1.306h5.005V11.83h-5.005v5.005ZM25.854 18.141a.666.666 0 0 1-.253-.052.41.41 0 0 1-.113-.061.569.569 0 0 1-.1-.078.68.68 0 0 1-.192-.462c0-.043.009-.087.013-.126a.71.71 0 0 1 .04-.126.53.53 0 0 1 .06-.11c.022-.038.053-.069.079-.1.03-.03.065-.06.1-.082a.925.925 0 0 1 .113-.06.651.651 0 0 1 .71.144c.03.03.06.06.082.099.026.035.044.07.061.109.018.043.03.082.04.126.004.04.008.083.008.126 0 .17-.07.34-.191.462a.642.642 0 0 1-.457.191ZM22.045 17.488a.652.652 0 1 1 1.304-.002.652.652 0 0 1-1.304.002ZM19.543 18.141a.652.652 0 0 1-.653-.653c0-.043 0-.087.013-.13.008-.04.021-.083.035-.122.017-.04.039-.074.06-.11.022-.038.053-.069.083-.1a.648.648 0 0 1 .588-.178c.043.009.082.022.122.035.039.018.078.04.113.061.035.026.07.052.1.083.03.03.056.06.078.1a.66.66 0 0 1 .113.361c0 .17-.07.34-.191.462a.569.569 0 0 1-.1.078.567.567 0 0 1-.113.06.57.57 0 0 1-.248.053ZM18.89 14.333a.652.652 0 1 1 1.304-.002.652.652 0 0 1-1.304.002ZM19.543 11.83a.652.652 0 0 1-.605-.405c-.014-.039-.027-.078-.035-.122a.652.652 0 0 1 1.001-.67c.035.026.07.052.1.083a.653.653 0 0 1 .191.461c0 .044 0 .087-.013.126a.57.57 0 0 1-.039.122c-.017.04-.035.079-.06.113a.44.44 0 0 1-.08.1c-.03.03-.064.057-.1.083a.94.94 0 0 1-.112.061c-.04.013-.079.026-.122.035a.654.654 0 0 1-.127.013ZM22.045 11.177a.652.652 0 1 1 1.304-.002.652.652 0 0 1-1.304.002ZM25.854 11.83a.666.666 0 0 1-.366-.109c-.035-.026-.07-.052-.1-.082-.026-.031-.057-.066-.079-.1a.565.565 0 0 1-.06-.114.577.577 0 0 1-.04-.122c-.004-.039-.013-.082-.013-.126 0-.174.074-.34.192-.461.03-.03.065-.057.1-.083a.939.939 0 0 1 .113-.06.648.648 0 0 1 .71.144.652.652 0 0 1 .191.46c0 .044 0 .087-.009.126a.566.566 0 0 1-.039.122.57.57 0 0 1-.06.113.642.642 0 0 1-.54.292ZM25.196 14.333a.655.655 0 0 1 1.31 0 .656.656 0 0 1-1.31 0ZM35.921 18.141H29.61a.652.652 0 0 1-.653-.653v-6.31c0-.362.292-.654.653-.654h6.311c.361 0 .653.292.653.653v6.311a.652.652 0 0 1-.653.653Zm-5.658-1.306h5.005V11.83h-5.005v5.005ZM15.783 28.67a.652.652 0 0 1-.653-.653c0-.044 0-.083.013-.127.009-.043.022-.082.035-.121a.931.931 0 0 1 .06-.113c.027-.035.053-.07.083-.1a.673.673 0 0 1 .923 0 .551.551 0 0 1 .14.213.571.571 0 0 1 .052.248.652.652 0 0 1-.653.653ZM11.974 28.017a.652.652 0 1 1 1.305 0 .652.652 0 1 1-1.305 0ZM9.471 28.67a.591.591 0 0 1-.126-.014.987.987 0 0 1-.122-.034.928.928 0 0 1-.113-.061c-.035-.026-.07-.052-.1-.083a.66.66 0 0 1-.192-.461c0-.044 0-.083.013-.127a.57.57 0 0 1 .04-.121.551.551 0 0 1 .056-.113c.026-.035.052-.07.083-.1a.55.55 0 0 1 .213-.14.57.57 0 0 1 .122-.04.655.655 0 0 1 .78.64c0 .17-.07.34-.192.462a.66.66 0 0 1-.462.192ZM8.818 24.861a.652.652 0 1 1 1.304-.001.652.652 0 0 1-1.304.001ZM9.471 22.358a.591.591 0 0 1-.126-.012c-.044 0-.083-.018-.122-.035a.928.928 0 0 1-.113-.061.652.652 0 0 1-.292-.544c0-.04 0-.083.013-.127a.568.568 0 0 1 .04-.121.55.55 0 0 1 .056-.114c.026-.034.052-.07.083-.1a.567.567 0 0 1 .1-.078.568.568 0 0 1 .113-.061.57.57 0 0 1 .122-.04.655.655 0 0 1 .78.64c0 .17-.07.34-.192.462a.66.66 0 0 1-.462.191ZM11.974 21.706c0-.357.291-.653.652-.653a.652.652 0 1 1-.653.653ZM15.783 22.358a.652.652 0 0 1-.462-.191.593.593 0 0 1-.082-.096c-.022-.039-.044-.074-.061-.113a.666.666 0 0 1-.048-.252c0-.17.07-.34.191-.462a.674.674 0 0 1 .923 0 .66.66 0 0 1 .179.592.663.663 0 0 1-.04.122c-.013.04-.034.074-.056.113a.66.66 0 0 1-.544.287ZM15.13 24.861a.652.652 0 1 1 1.304-.001.652.652 0 0 1-1.304.001ZM25.849 28.67h-6.311a.652.652 0 0 1-.653-.653v-6.311c0-.362.291-.653.653-.653h6.31c.362 0 .654.291.654.653v6.31a.652.652 0 0 1-.653.654Zm-5.659-1.306h5.006v-5.006H20.19v5.006ZM35.921 28.67H29.61a.652.652 0 0 1-.653-.653v-6.311c0-.362.292-.653.653-.653h6.311c.361 0 .653.291.653.653v6.31a.652.652 0 0 1-.653.654Zm-5.658-1.306h5.005v-5.006h-5.005v5.006ZM15.782 39.198h-6.31a.652.652 0 0 1-.654-.653v-6.31c0-.362.292-.654.653-.654h6.311c.361 0 .653.292.653.653v6.311a.652.652 0 0 1-.653.653Zm-5.658-1.306h5.005v-5.005h-5.005v5.005ZM25.849 39.198h-6.311a.652.652 0 0 1-.653-.653v-6.31c0-.362.291-.654.653-.654h6.31c.362 0 .654.292.654.653v6.311a.652.652 0 0 1-.653.653Zm-5.659-1.306h5.006v-5.005H20.19v5.005ZM35.921 39.198c-.17 0-.34-.07-.46-.187a.67.67 0 0 1-.192-.466c0-.174.07-.34.191-.461a.673.673 0 0 1 .923 0 .66.66 0 0 1 0 .927.675.675 0 0 1-.462.187ZM32.112 38.545c0-.357.292-.653.653-.653a.652.652 0 1 1-.653.653ZM29.61 39.203c-.044 0-.087 0-.126-.014a.571.571 0 0 1-.122-.039.602.602 0 0 1-.213-.144c-.03-.025-.057-.06-.083-.095a.55.55 0 0 1-.057-.113.654.654 0 0 1-.052-.253c0-.17.07-.34.191-.461a.569.569 0 0 1 .1-.078.57.57 0 0 1 .114-.061.571.571 0 0 1 .122-.04.663.663 0 0 1 .587.179.66.66 0 0 1 .192.461c0 .044 0 .087-.013.13-.009.04-.022.084-.035.123a.945.945 0 0 1-.061.113c-.026.035-.052.07-.083.096a.657.657 0 0 1-.461.196ZM28.957 35.394a.652.652 0 1 1 1.306 0 .651.651 0 0 1-.653.649.651.651 0 0 1-.653-.649ZM29.61 32.892c-.044 0-.087 0-.126-.014a.57.57 0 0 1-.122-.039c-.04-.017-.078-.035-.113-.06a.568.568 0 0 1-.1-.079.55.55 0 0 1-.14-.213.654.654 0 0 1-.052-.248.645.645 0 0 1 .292-.544.565.565 0 0 1 .113-.061.57.57 0 0 1 .122-.04c.213-.039.435.03.587.183a.645.645 0 0 1 .192.462c0 .039 0 .082-.013.126-.009.039-.022.082-.035.122a.939.939 0 0 1-.061.113c-.026.035-.052.07-.083.1a.653.653 0 0 1-.461.191ZM32.112 32.239a.652.652 0 1 1 1.304-.002.652.652 0 0 1-1.304.002ZM35.921 32.892a.66.66 0 0 1-.46-.192.66.66 0 0 1-.192-.461c0-.044 0-.087.013-.131.008-.04.021-.083.034-.122a.593.593 0 0 1 .144-.209.673.673 0 0 1 .923 0 .652.652 0 0 1-.461 1.114ZM35.269 35.394a.652.652 0 1 1 1.303-.002.652.652 0 0 1-1.303.002Z"/>
  </g>
  <defs>
    <clipPath id="cdn-icon-clip-path">
      <path fill="#fff" d="M-.009 0h45.41v45H-.01z"/>
    </clipPath>
  </defs>
</svg>