<svg xmlns="http://www.w3.org/2000/svg" fill="none" viewBox="0 0 45 45">
  <g fill="#fff" clip-path="url(#dx-icon-clip-path)">
    <path d="M16.1 16.843a.66.66 0 0 1-.468-.196l-1.753-1.753a.66.66 0 0 1 0-.937.66.66 0 0 1 .937 0l1.753 1.753a.66.66 0 0 1 0 .937.66.66 0 0 1-.469.196ZM34.856 35.594a.66.66 0 0 1-.468-.195l-1.753-1.753a.66.66 0 0 1 0-.937.66.66 0 0 1 .937 0l1.753 1.752a.66.66 0 0 1 0 .938.66.66 0 0 1-.469.195ZM33.103 16.843a.66.66 0 0 1-.468-.196.66.66 0 0 1 0-.937l1.753-1.753a.66.66 0 0 1 .937 0 .66.66 0 0 1 0 .937l-1.753 1.753a.66.66 0 0 1-.469.196ZM14.352 35.594a.66.66 0 0 1-.468-.195.66.66 0 0 1 0-.938l1.752-1.752a.66.66 0 0 1 .938 0 .66.66 0 0 1 0 .937l-1.753 1.753a.66.66 0 0 1-.469.195ZM24.604 13.32a.664.664 0 0 1-.664-.664v-2.478a.664.664 0 0 1 1.328 0v2.478a.664.664 0 0 1-.664.663ZM24.604 39.841a.664.664 0 0 1-.664-.663V36.7a.664.664 0 0 1 1.328 0v2.478a.664.664 0 0 1-.664.663ZM12.582 25.342h-2.478a.664.664 0 0 1 0-1.328h2.478a.664.664 0 0 1 0 1.328ZM39.104 25.342h-2.477a.664.664 0 0 1 0-1.328h2.477a.664.664 0 1 1 0 1.328ZM3.254 11.537c-.447 0-.894-.17-1.237-.512L.512 9.519a1.752 1.752 0 0 1 0-2.473L7.046.512a1.752 1.752 0 0 1 2.473 0l1.505 1.506a1.752 1.752 0 0 1 0 2.473L4.49 11.025c-.342.342-.79.511-1.236.511ZM8.282 1.322a.42.42 0 0 0-.3.122L1.45 7.983a.424.424 0 0 0 0 .599l1.505 1.505a.424.424 0 0 0 .6 0l6.533-6.533a.424.424 0 0 0 0-.6L8.582 1.45a.42.42 0 0 0-.3-.121v-.005Z"/>
    <path d="M9.467 12.539a.664.664 0 0 1-.469-.196L5.614 8.96a.66.66 0 0 1 0-.937l2.334-2.334a.66.66 0 0 1 .937 0l3.398 3.397a.655.655 0 0 1-.043.976c-.474.395-.89.773-1.28 1.163-.313.312-.63.655-.99 1.076a.661.661 0 0 1-.477.23h-.026v.009ZM7.02 8.495l2.416 2.417a17.633 17.633 0 0 1 1.406-1.388L8.417 7.097 7.02 8.495Z"/>
    <path d="M24.4 45c-5.206 0-10.416-1.983-14.382-5.948C2.551 31.585 2.083 19.454 8.96 11.44c.382-.447.72-.811 1.06-1.15.416-.416.867-.824 1.366-1.245 7.996-6.668 20.027-6.122 27.394 1.245 7.93 7.931 7.93 20.83 0 28.76A20.27 20.27 0 0 1 24.4 45ZM12.24 10.066c-.473.394-.89.772-1.28 1.162-.313.313-.63.655-.99 1.076-6.425 7.493-5.991 18.826.99 25.81 7.414 7.411 19.471 7.415 26.886 0 7.415-7.41 7.41-19.471 0-26.886-6.885-6.885-18.131-7.397-25.607-1.162Zm12.165 31.368c-4.486 0-8.695-1.74-11.858-4.903-6.538-6.538-6.538-17.176 0-23.72 6.539-6.537 17.177-6.537 23.72 0a16.656 16.656 0 0 1 4.902 11.858c0 4.486-1.74 8.695-4.902 11.858a16.656 16.656 0 0 1-11.858 4.902l-.004.005Zm0-32.201c-3.957 0-7.91 1.505-10.92 4.516a15.341 15.341 0 0 0-4.517 10.92c0 4.13 1.605 8.01 4.517 10.92a15.34 15.34 0 0 0 10.92 4.517 15.34 15.34 0 0 0 10.92-4.516 15.34 15.34 0 0 0 4.517-10.92c0-4.131-1.606-8.01-4.517-10.921a15.4 15.4 0 0 0-10.92-4.516Z"/>
    <path d="M24.54 27.511a2.946 2.946 0 1 1 .002-5.892 2.946 2.946 0 0 1-.002 5.892Zm0-4.564c-.417 0-.83.156-1.146.473-.629.629-.629 1.657 0 2.29.63.634 1.658.63 2.29 0a1.622 1.622 0 0 0 0-2.29 1.608 1.608 0 0 0-1.144-.473Z"/>
    <path d="M24.33 25.069h-8.208a.664.664 0 0 1 0-1.328h8.209a.664.664 0 0 1 0 1.328Z"/>
  </g>
  <defs>
    <clipPath id="dx-icon-clip-path">
      <path fill="#fff" d="M0 0h44.731v45H0z"/>
    </clipPath>
  </defs>
</svg>