<svg xmlns="http://www.w3.org/2000/svg" fill="none" viewBox="0 0 45 45">
  <g fill="#fff" clip-path="url(#extensible-icon-clip-path)">
    <path d="M44.346 1.326H5.26a.658.658 0 0 1-.655-.663c0-.367.293-.663.655-.663h39.086c.362 0 .654.296.654.663a.658.658 0 0 1-.654.663ZM44.141 40.818H7.396a.658.658 0 0 1-.654-.663c0-.367.292-.663.654-.663h36.745c.362 0 .654.296.654.663a.658.658 0 0 1-.654.663Z"/>
    <path d="M7.396 12.215H5.298C2.377 12.215 0 9.474 0 6.105c0-.199.009-.393.026-.583C.283 2.374 2.551 0 5.294 0c.362 0 .654.296.654.663a.658.658 0 0 1-.654.663c-2.058 0-3.763 1.853-3.964 4.306a5.635 5.635 0 0 0-.022.473c0 2.635 1.788 4.78 3.986 4.78h2.098c.362 0 .654.295.654.662a.658.658 0 0 1-.654.663l.004.005Z"/>
    <path d="M7.396 45H5.298C2.381 45 .004 42.259.004 38.895V6.105c0-.367.292-.663.654-.663.362 0 .654.296.654.663 0 2.635 1.788 4.78 3.986 4.78h2.098c.362 0 .654.295.654.662v32.785a.658.658 0 0 1-.654.664V45ZM1.308 10.124v28.77c0 2.636 1.788 4.78 3.986 4.78h1.443v-31.46H5.294c-1.588 0-3.014-.808-3.986-2.09ZM44.346 40.818a.658.658 0 0 1-.655-.663V.663c0-.367.293-.663.654-.663.363 0 .655.296.655.663v39.492a.658.658 0 0 1-.654.663ZM30.404 18.263a.658.658 0 0 1-.654-.664c0-.366.292-.663.654-.663.929 0 1.683-.764 1.683-1.706 0-.367.293-.663.655-.663.361 0 .654.296.654.663 0 1.671-1.343 3.033-2.992 3.033Z"/>
    <path d="M30.404 20.247c-.85 0-1.697-.225-2.438-.654a5.047 5.047 0 0 1 0-8.726 4.894 4.894 0 0 1 2.438-.655c2.73 0 4.95 2.25 4.95 5.018 0 2.767-2.22 5.017-4.95 5.017Zm0-8.709a3.61 3.61 0 0 0-1.793.482 3.704 3.704 0 0 0-1.849 3.21c0 1.322.707 2.555 1.85 3.21a3.61 3.61 0 0 0 1.792.481c2.01 0 3.641-1.657 3.641-3.691s-1.635-3.692-3.641-3.692Z"/>
    <path d="M33.754 20.438H16.123c-2.835 0-5.138-2.335-5.138-5.208 0-2.874 2.303-5.208 5.137-5.208h17.632c2.834 0 5.137 2.334 5.137 5.208 0 2.873-2.303 5.208-5.137 5.208Zm-17.631-9.09c-2.111 0-3.83 1.742-3.83 3.882s1.719 3.881 3.83 3.881h17.63c2.111 0 3.83-1.741 3.83-3.881 0-2.14-1.719-3.882-3.83-3.882h-17.63ZM19.467 30.557c-1.648 0-2.991-1.362-2.991-3.033 0-.367.292-.663.654-.663.362 0 .654.296.654.663 0 .942.754 1.707 1.683 1.707.362 0 .654.296.654.663a.658.658 0 0 1-.654.663Z"/>
    <path d="M19.467 32.546c-2.73 0-4.95-2.25-4.95-5.017 0-2.768 2.22-5.018 4.95-5.018.85 0 1.697.226 2.438.654a5.047 5.047 0 0 1 0 8.727 4.883 4.883 0 0 1-2.438.654Zm0-8.709c-2.01 0-3.641 1.658-3.641 3.692 0 2.033 1.635 3.691 3.641 3.691.628 0 1.247-.168 1.793-.482a3.704 3.704 0 0 0 1.848-3.21 3.704 3.704 0 0 0-1.849-3.209 3.61 3.61 0 0 0-1.792-.482Z"/>
    <path d="M33.754 32.736H16.123c-2.835 0-5.138-2.334-5.138-5.207 0-2.874 2.303-5.208 5.137-5.208h17.632c2.834 0 5.137 2.334 5.137 5.208 0 2.873-2.303 5.207-5.137 5.207Zm-17.631-9.089c-2.111 0-3.83 1.742-3.83 3.882s1.719 3.881 3.83 3.881h17.63c2.111 0 3.83-1.742 3.83-3.881 0-2.14-1.719-3.882-3.83-3.882h-17.63Z"/>
  </g>
  <defs>
    <clipPath id="extensible-icon-clip-path">
      <path fill="#fff" d="M0 0h45v45H0z"/>
    </clipPath>
  </defs>
</svg>