<svg xmlns="http://www.w3.org/2000/svg" fill="none" viewBox="0 0 256 256">
  <path fill="url(#a)" d="M236.426 11.58c-.01.202-27.926 105.571-37.454 143.844a10.937 10.937 0 0 1-2.681 4.917 11.097 11.097 0 0 1-6.167 3.31 10.906 10.906 0 0 1-6.115-.706c-16.059-6.789-33.471-17.038-57.247-14.321-44.678 6.214-75.379 51.375-89.29 100.971-.607 2.957-4.922 7.365-10.83 6.219a7.6 7.6 0 0 1-.622-.145c-3.475-.934-5.446-3.781-6.224-6.676-.436-1.618-.493-3.257-.223-4.574.01-.203 26.644-100.343 36.177-138.616a10.949 10.949 0 0 1 2.687-4.923 11.117 11.117 0 0 1 6.172-3.304 10.938 10.938 0 0 1 6.11.711c16.059 6.789 31.499 14.03 51.261 13.231 35.203-2.168 76.577-37.681 96.552-105.114.601-2.957 4.917-7.36 10.824-6.22.213.042.42.089.628.146 3.47.933 5.446 3.781 6.219 6.67.436 1.623.493 3.257.228 4.585l-.005-.005Z"/>
  <defs>
    <linearGradient id="a" x1="219.101" x2="37.899" y1="-14.792" y2="340.216" gradientUnits="userSpaceOnUse">
      <stop stop-color="#46E7ED"/>
      <stop offset="1" stop-color="#0E83ED"/>
    </linearGradient>
  </defs>
</svg>