<svg xmlns="http://www.w3.org/2000/svg" fill="none" viewBox="0 0 34 34">
  <path fill="#fff" d="M16.906 2.817a14.089 14.089 0 0 0-14.089 14.09c0 6.227 4.044 11.51 9.637 13.384.704.113.93-.324.93-.705v-2.38c-3.903.845-4.734-1.889-4.734-1.889-.648-1.634-1.564-2.07-1.564-2.07-1.282-.874.099-.846.099-.846 1.409.099 2.155 1.451 2.155 1.451 1.226 2.142 3.297 1.508 4.1 1.17.127-.916.493-1.536.888-1.888-3.128-.353-6.41-1.564-6.41-6.932 0-1.564.535-2.818 1.45-3.818-.14-.353-.633-1.818.141-3.72 0 0 1.184-.38 3.875 1.437a13.274 13.274 0 0 1 3.522-.465c1.198 0 2.41.155 3.522.465 2.691-1.817 3.875-1.437 3.875-1.437.775 1.902.282 3.367.14 3.72.917 1 1.452 2.254 1.452 3.818 0 5.382-3.297 6.565-6.439 6.917.508.437.972 1.297.972 2.607v3.86c0 .38.226.832.944.705 5.594-1.888 9.623-7.157 9.623-13.385A14.09 14.09 0 0 0 16.906 2.817Z"/>
</svg>