<svg xmlns="http://www.w3.org/2000/svg" fill="none" viewBox="0 0 34 34">
  <path fill="#fff" d="M10.99 2.817h11.835c4.508 0 8.171 3.663 8.171 8.172v11.835a8.172 8.172 0 0 1-8.171 8.171H10.99c-4.509 0-8.172-3.663-8.172-8.171V10.989a8.172 8.172 0 0 1 8.172-8.172Zm-.282 2.818a5.072 5.072 0 0 0-5.072 5.072v12.398a5.069 5.069 0 0 0 5.072 5.072h12.398a5.072 5.072 0 0 0 5.072-5.072V10.707a5.069 5.069 0 0 0-5.072-5.072H10.708Zm13.596 2.113a1.761 1.761 0 1 1 0 3.523 1.761 1.761 0 0 1 0-3.523Zm-7.397 2.114a7.044 7.044 0 1 1 0 14.089 7.044 7.044 0 0 1 0-14.09Zm0 2.818a4.227 4.227 0 1 0 0 8.453 4.227 4.227 0 0 0 0-8.453Z"/>
</svg>