<svg xmlns="http://www.w3.org/2000/svg" fill="none" viewBox="0 0 34 34">
  <path fill="#fff" d="M26.77 4.227a2.818 2.818 0 0 1 2.817 2.817V26.77a2.818 2.818 0 0 1-2.817 2.818H7.045a2.818 2.818 0 0 1-2.818-2.818V7.044a2.818 2.818 0 0 1 2.818-2.817H26.77Zm-.705 21.837v-7.467a4.593 4.593 0 0 0-4.593-4.593c-1.197 0-2.592.733-3.268 1.832v-1.564h-3.931v11.792h3.93V19.12c0-1.085.874-1.973 1.959-1.973a1.973 1.973 0 0 1 1.973 1.973v6.945h3.93ZM9.694 12.06a2.367 2.367 0 0 0 2.367-2.367 2.375 2.375 0 0 0-2.367-2.38 2.381 2.381 0 0 0-2.381 2.38c0 1.31 1.07 2.367 2.38 2.367Zm1.958 14.004V14.272H7.75v11.792h3.902Z"/>
</svg>