<svg width="479" height="224" viewBox="0 0 479 224" fill="none" xmlns="http://www.w3.org/2000/svg">
<path d="M189.407 10.1067C189.398 10.2832 165.034 102.247 156.718 135.651C156.302 137.33 155.473 138.788 154.378 139.942C152.943 141.463 151.042 142.477 148.995 142.83C147.262 143.129 145.419 142.957 143.658 142.215C129.643 136.289 114.446 127.344 93.6951 129.716C54.7006 135.139 27.906 174.555 15.7649 217.841C15.2353 220.421 11.4689 224.269 6.31282 223.268C6.12722 223.232 5.94614 223.191 5.7696 223.141C2.73659 222.327 1.01637 219.841 0.337343 217.315C-0.0429148 215.903 -0.0927105 214.473 0.142687 213.323C0.151741 213.146 23.3973 125.746 31.7177 92.3419C32.1341 90.6624 32.9625 89.2048 34.0626 88.0459C35.4976 86.5294 37.3989 85.5154 39.4496 85.1623C41.1834 84.868 43.0213 85.0401 44.7822 85.7825C58.7974 91.7081 72.2739 98.0277 89.5213 97.3305C120.245 95.4383 156.356 64.4428 173.789 5.58884C174.314 3.00852 178.081 -0.834799 183.237 0.161114C183.422 0.197329 183.603 0.238071 183.785 0.287867C186.813 1.1027 188.538 3.58796 189.212 6.10943C189.592 7.52634 189.642 8.95231 189.411 10.1112L189.407 10.1067Z" fill="white"/>
<path d="M429.494 101.683V89.2284H442.718V70.1618L456.402 63.8589V83.5391L455.836 88.7796C455.811 89.02 455.999 89.2284 456.239 89.2284H475.775V101.683H456.198C455.978 101.683 455.809 101.873 455.832 102.091L456.404 107.526V142.275C456.404 152.115 458.403 154.114 466.706 154.114C470.704 154.114 474.394 153.345 478.238 152.115V163.647C473.779 165.492 467.476 166.875 461.633 166.875C447.642 166.875 441.953 161.186 441.953 144.581V101.683H429.498H429.494Z" fill="white"/>
<path d="M406.037 165.867V61.2529H421.104V165.867H406.037Z" fill="white"/>
<path d="M280.121 165.787L247.052 61.2529H263.658L284.194 131.961L288.341 152.776C288.395 153.056 288.64 153.255 288.927 153.255C289.208 153.255 289.451 153.056 289.508 152.779L293.73 131.961L314.96 61.2529H331.412L297.496 165.785H280.121V165.787Z" fill="white"/>
<path d="M359.384 167.422C335.397 167.422 322.635 151.739 322.635 127.446C322.635 104.691 336.626 87.3159 360.46 87.3159C384.293 87.3159 396.901 102.999 396.901 126.832C396.901 150.665 382.448 167.424 359.384 167.424V167.422ZM359.69 155.736C373.374 155.736 381.062 144.358 381.062 127.139C381.062 109.92 373.837 99.0013 360.151 99.0013C346.464 99.0013 338.625 110.38 338.625 127.139C338.625 143.898 346.006 155.736 359.69 155.736Z" fill="white"/>
</svg>
