<svg xmlns="http://www.w3.org/2000/svg" width="231" height="110" fill="none"><path fill="#fff" d="M92.767 4.95c-.005.086-11.938 45.128-16.01 61.488a4.678 4.678 0 0 1-1.147 2.102 4.743 4.743 0 0 1-2.636 1.415 4.663 4.663 0 0 1-2.614-.302c-6.864-2.902-14.307-7.283-24.47-6.122C26.79 66.189 13.667 85.493 7.72 106.694c-.26 1.263-2.104 3.148-4.63 2.658a3.632 3.632 0 0 1-.265-.062c-1.486-.399-2.328-1.616-2.66-2.853-.187-.692-.211-1.393-.096-1.956.004-.086 11.39-42.893 15.464-59.253a4.68 4.68 0 0 1 1.149-2.104 4.751 4.751 0 0 1 2.638-1.413c.85-.144 1.75-.06 2.612.304 6.864 2.902 13.465 5.997 21.912 5.656 15.048-.927 32.734-16.108 41.273-44.933.257-1.264 2.101-3.146 4.627-2.658.09.018.18.038.268.062 1.483.4 2.328 1.616 2.658 2.851.186.694.21 1.393.098 1.96l-.002-.002ZM136.53 80.797l-15.992-50.553h8.031l9.931 34.194 2.005 10.066a.288.288 0 0 0 .565.002l2.041-10.068 10.267-34.194h7.956l-16.401 50.552h-8.403ZM163.966 38.721c-.372 0-.521-.222-.521-.52v-7.36c0-.373.223-.595.595-.595h7.138c.297 0 .446.222.446.594v7.362c0 .298-.149.52-.446.52h-7.212Zm-.075 42.02V43.789h7.362v36.955h-7.362v-.001ZM174.09 49.865v-6.023h6.395v-9.22l6.618-3.049v9.518l-.274 2.534a.196.196 0 0 0 .195.217h9.448v6.023h-9.468a.178.178 0 0 0-.177.197l.277 2.629v16.804c0 4.759.967 5.725 4.982 5.725 1.933 0 3.718-.372 5.577-.966v5.576c-2.157.893-5.205 1.562-8.03 1.562-6.766 0-9.517-2.752-9.517-10.782V49.865h-6.026ZM215.118 81.614c-11.228 0-17.548-7.287-17.474-19.332 0-12.046 6.693-19.407 17.325-19.407 11.376 0 15.987 7.808 15.911 18.218l-.074 2.75h-25.801c.52 8.403 4.61 12.047 10.558 12.047 4.312 0 7.584-2.082 9.145-4.907l4.982 3.494c-2.825 4.016-7.361 7.138-14.574 7.138l.002-.001Zm-.372-33.163c-5.057 0-8.997 2.974-9.518 10.558h18.068v-.298c0-6.245-2.305-10.261-8.55-10.261Z"/></svg>