<svg xmlns="http://www.w3.org/2000/svg" fill="none" viewBox="0 0 250 71">
  <path fill="#fff" d="M58.317 3.112c-.003.054-7.504 28.369-10.065 38.654a2.942 2.942 0 0 1-.72 1.321 2.981 2.981 0 0 1-1.657.89 2.93 2.93 0 0 1-1.644-.19c-4.315-1.825-8.994-4.579-15.383-3.849-12.006 1.67-20.256 13.806-23.994 27.133-.163.795-1.323 1.98-2.91 1.671a2.082 2.082 0 0 1-.168-.039C.843 68.453.313 67.687.104 66.91a2.75 2.75 0 0 1-.06-1.23c.003-.054 7.16-26.964 9.722-37.249.128-.517.383-.966.722-1.322a2.987 2.987 0 0 1 1.658-.888 2.94 2.94 0 0 1 1.642.19c4.315 1.825 8.465 3.77 13.775 3.556 9.46-.582 20.578-10.126 25.945-28.246C53.67.926 54.83-.257 56.418.05c.056.01.112.023.168.039.932.25 1.463 1.016 1.67 1.792.118.436.133.875.062 1.232l-.001-.001ZM97.622 20.069c0 2.186-.893 4.049-2.584 5.386-1.675 1.325-3.983 2.026-6.672 2.026-2.363 0-4.354-.51-5.919-1.514-1.578-1.012-2.677-2.502-3.268-4.43l3.245-1.282c.81 2.738 3.025 4.306 6.098 4.306 1.614 0 2.96-.375 3.891-1.084.938-.713 1.434-1.745 1.434-2.984 0-2.647-2.092-3.568-6.533-4.908-4.468-1.373-7.23-3.08-7.192-7.34 0-3.98 3.55-6.758 8.633-6.758 2.312 0 4.238.479 5.725 1.423 1.46.928 2.455 2.28 2.958 4.022l-3.093 1.316c-.364-1.252-1.017-2.217-1.941-2.87-.945-.669-2.173-1.008-3.649-1.008-1.568 0-2.872.372-3.771 1.074-.827.647-1.282 1.56-1.282 2.569 0 1.274.363 2.073 1.253 2.757.949.729 2.516 1.295 4.577 1.92 2.065.62 4.188 1.359 5.73 2.548 1.588 1.223 2.36 2.804 2.36 4.831ZM103.905 2.515v8.812c0 .333-.44 2.344-.582 2.987a.162.162 0 0 0 .16.198.165.165 0 0 0 .158-.117c.877-2.92 3.49-5.67 6.775-5.67 3.548 0 5.487 2.168 5.487 6.505v11.853h-3.694v-10.95c0-3.144-1.244-4.3-3.366-4.3-2.597 0-4.865 2.457-4.938 6.432v8.818h-3.512V2.515h3.512ZM127.294 27.48c-5.706 0-8.742-3.686-8.742-9.395 0-5.348 3.328-9.432 8.998-9.432s8.67 3.686 8.67 9.288c0 5.601-3.439 9.54-8.926 9.54Zm.073-2.746c3.256 0 5.085-2.674 5.085-6.721 0-4.047-1.719-6.613-4.975-6.613-3.256 0-5.121 2.674-5.121 6.613 0 3.939 1.756 6.721 5.011 6.721ZM148.32 27.336c-2.957 0-5.326-2.07-6.304-4.69a.175.175 0 0 0-.165-.115.174.174 0 0 0-.174.2l.68 4.424v7.625h-3.511V9.122h3.475v1.518l-.406 2.367a.154.154 0 0 0 .154.18c.064 0 .121-.04.145-.098.943-2.38 3.368-4.436 6.399-4.436 4.645 0 7.096 3.361 7.096 8.962 0 6.252-3.146 9.721-7.389 9.721Zm-1.061-2.71c2.853 0 4.645-2.82 4.645-6.722 0-4.12-1.463-6.504-4.572-6.504-3.11 0-5.121 3.433-5.121 6.288v.975c0 3.397 1.756 5.963 5.048 5.963ZM158.033 6.607c-.183 0-.256-.108-.256-.253V2.777c0-.18.11-.289.293-.289h3.511c.147 0 .22.108.22.29v3.577c0 .145-.073.253-.22.253h-3.548Zm-.036 20.476V9.123h3.621v17.96h-3.621ZM163.629 12.05V9.123h2.926v-1.78c0-3.795 1.902-5.856 5.743-5.856 1.39 0 2.305.217 3.036.398V4.63c-.695-.217-1.536-.325-2.377-.325-2.195 0-2.963.868-2.963 3.29v.046l-.11 1.481h4.243v2.927h-4.243l.11 1.627v13.407h-3.439V12.05h-2.926Z"/>
  <path fill="#fff" d="M176.391 34.383c-.768 0-1.719-.217-2.122-.397V31.31c.512.108 1.281.217 1.866.217 2.048 0 2.963-.975 3.804-3.939l-7.06-18.466h3.877l3.658 10.95.958 4.204a.17.17 0 0 0 .166.13c.081 0 .15-.055.166-.133l.869-4.201 3.438-10.95h3.804l-7.023 19.695c-1.17 3.288-2.78 5.565-6.401 5.565ZM201.874 27.083l-7.867-24.568h3.95l4.886 16.618.986 4.892a.142.142 0 0 0 .14.113.14.14 0 0 0 .138-.112l1.005-4.893 5.05-16.618h3.914l-8.068 24.568h-4.134ZM215.371 6.635c-.183 0-.256-.109-.256-.253V2.804c0-.18.11-.288.293-.288h3.511c.147 0 .22.108.22.288v3.578c0 .145-.073.253-.22.253h-3.548Zm-.036 20.422V9.097h3.621v17.96h-3.621ZM220.889 12.05V9.125h3.146V4.642l3.255-1.481v4.625l-.134 1.232a.095.095 0 0 0 .095.106h4.648v2.927h-4.657a.086.086 0 0 0-.087.096l.136 1.277v8.167c0 2.313.475 2.783 2.451 2.783.951 0 1.829-.181 2.743-.47v2.71c-1.061.434-2.56.759-3.95.759-3.329 0-4.682-1.337-4.682-5.24V12.051h-2.964ZM241.881 27.48c-5.523 0-8.632-3.541-8.596-9.395 0-5.855 3.293-9.432 8.523-9.432 5.597 0 7.865 3.795 7.828 8.854l-.036 1.337h-12.694c.256 4.084 2.268 5.854 5.194 5.854 2.122 0 3.731-1.011 4.499-2.384l2.451 1.698c-1.39 1.951-3.621 3.469-7.169 3.469Zm-.183-16.117c-2.487 0-4.426 1.445-4.682 5.131h8.889v-.145c0-3.035-1.134-4.986-4.207-4.986ZM79.736 62.255V37.688h7.609c6.182 0 8.888 2.53 8.888 7.336 0 4.806-3.511 8.095-9.474 8.095h-3.328v9.137h-3.695Zm3.695-21.677v9.613h3.219c4.133 0 5.816-2.06 5.816-4.806 0-3.47-1.5-4.806-5.78-4.806h-3.255ZM99.048 62.255V37.668h3.584v24.587h-3.584ZM111.406 62.544c-3.878 0-5.597-2.276-5.597-6.65v-11.6h3.695v11.023c0 3.035.915 4.228 3.036 4.228 2.414 0 4.317-2.385 4.463-5.71v-9.54h3.694v17.96h-3.438V60.16l.462-2.974a.162.162 0 0 0-.161-.185.162.162 0 0 0-.16.132c-.338 1.852-2.459 5.447-5.994 5.412ZM131.09 57.015c-.731 0-1.426-.036-2.085-.18-1.353.216-2.121.83-2.121 1.48 0 .904.585 1.518 2.743 1.771 1.061.108 3.329.325 4.573.398 4.17.47 6.255 1.662 6.255 4.625 0 3.397-3.439 5.89-9.438 5.89h-.292c-5.524 0-8.011-1.77-8.011-4.48 0-1.799 1.532-3.253 4.257-3.826.046-.01.046-.073 0-.084-1.794-.405-3.051-1.57-3.051-3.137 0-1.568 1.092-2.599 3.309-3.15a.047.047 0 0 0 .009-.087c-2.267-1.102-3.574-3.24-3.574-5.726 0-3.794 2.78-6.649 7.572-6.649 2.926 0 5.084 1.048 6.328 2.747.439-1.807 1.682-2.53 3.292-2.53.292 0 .622.072.731.108v3.397c-.146-.072-.439-.18-.914-.18-.768 0-1.683.144-2.305.758.256.687.403 1.41.403 2.205 0 3.938-2.744 6.649-7.682 6.649h.001Zm.22-2.494c2.853 0 4.06-1.734 4.06-4.12 0-2.384-1.243-4.119-4.133-4.119-2.89 0-4.024 1.88-4.024 4.156s1.244 4.083 4.097 4.083Zm1.719 8.926c-1.134-.145-3.073-.253-4.426-.325-1.756.362-2.671 1.301-2.634 2.53 0 1.626 1.756 2.746 5.231 2.746h.403c4.17 0 5.56-1.41 5.56-3 0-1.408-1.573-1.697-4.134-1.95ZM143.256 41.778c-.183 0-.256-.108-.256-.253v-3.577c0-.18.109-.289.292-.289h3.512c.146 0 .219.108.219.289v3.578c0 .144-.073.253-.219.253h-3.548Zm-.037 20.476v-17.96h3.622v17.96h-3.622ZM152.547 44.294v2.458c0 .341-.268 2.147-.344 2.65a.115.115 0 0 0 .224.048c.865-2.93 3.371-5.553 6.632-5.553 3.585 0 5.524 2.24 5.524 6.577v11.781h-3.695v-10.95c0-3.143-1.243-4.3-3.328-4.3-2.597 0-4.829 2.277-4.902 6.144v9.106H149v-17.96h3.548-.001Z"/>
</svg>