<svg xmlns="http://www.w3.org/2000/svg" fill="none" viewBox="0 0 246 43"><path fill="#fff" d="M36.274 1.936c-.002.034-4.669 17.65-6.262 24.05a1.83 1.83 0 0 1-.448.821c-.275.292-.64.486-1.031.553a1.823 1.823 0 0 1-1.023-.117c-2.684-1.136-5.596-2.85-9.57-2.395-7.47 1.04-12.603 8.59-14.929 16.881-.101.495-.823 1.232-1.81 1.04a1.26 1.26 0 0 1-.105-.024c-.58-.156-.91-.632-1.04-1.116a1.711 1.711 0 0 1-.037-.765c.001-.034 4.454-16.776 6.048-23.175a1.83 1.83 0 0 1 .45-.823c.274-.29.638-.485 1.031-.552a1.83 1.83 0 0 1 1.022.118c2.684 1.136 5.266 2.346 8.57 2.213 5.885-.363 12.803-6.3 16.142-17.574.1-.495.822-1.23 1.81-1.04a1.4 1.4 0 0 1 .105.024c.58.156.91.632 1.04 1.115.072.272.082.545.038.767l-.001-.001Z"/><g fill="#fff" clip-path="url(#a)"><path d="M62.92 22.567c0 1.637-.662 3.032-1.913 4.034-1.24.992-2.947 1.517-4.937 1.517-1.748 0-3.221-.381-4.379-1.133-1.168-.758-1.98-1.874-2.419-3.318l2.402-.961c.599 2.051 2.238 3.225 4.512 3.225 1.195 0 2.19-.28 2.88-.811.693-.535 1.06-1.308 1.06-2.235 0-1.983-1.548-2.673-4.834-3.677-3.306-1.028-5.35-2.306-5.322-5.497 0-2.98 2.627-5.062 6.389-5.062 1.71 0 3.136.358 4.235 1.066 1.08.695 1.817 1.707 2.19 3.012l-2.29.986c-.269-.938-.752-1.66-1.436-2.15-.699-.5-1.607-.755-2.7-.755-1.16 0-2.125.279-2.79.805-.612.484-.948 1.168-.948 1.924 0 .954.268 1.553.927 2.065.702.546 1.861.97 3.387 1.438 1.528.465 3.098 1.018 4.24 1.909 1.174.916 1.745 2.1 1.745 3.618ZM66.733 9.42v6.6c0 .25-.326 1.756-.43 2.237a.122.122 0 0 0 .235.06c.649-2.187 2.582-4.246 5.013-4.246 2.625 0 4.06 1.624 4.06 4.872v8.878h-2.734v-8.202c0-2.354-.92-3.22-2.49-3.22-1.922 0-3.6 1.84-3.654 4.817v6.605h-2.598V9.419h2.598ZM83.207 28.119c-4.222 0-6.469-2.761-6.469-7.038 0-4.005 2.463-7.064 6.659-7.064 4.195 0 6.415 2.76 6.415 6.956 0 4.196-2.545 7.146-6.605 7.146Zm.054-2.058c2.41 0 3.763-2.003 3.763-5.034 0-3.03-1.272-4.953-3.682-4.953-2.409 0-3.789 2.003-3.789 4.953s1.3 5.034 3.708 5.034ZM97.931 28.01c-2.188 0-3.94-1.55-4.664-3.513a.13.13 0 0 0-.251.064l.503 3.314v5.71h-2.598V14.369h2.571v1.137l-.3 1.773a.116.116 0 0 0 .222.061c.697-1.782 2.491-3.322 4.734-3.322 3.437 0 5.251 2.517 5.251 6.713 0 4.682-2.328 7.28-5.467 7.28Zm-.785-2.03c2.111 0 3.438-2.11 3.438-5.034 0-3.086-1.083-4.872-3.384-4.872-2.3 0-3.79 2.571-3.79 4.71v.73c0 2.545 1.3 4.467 3.736 4.467ZM104.589 12.484c-.136 0-.19-.08-.19-.19V9.616c0-.135.081-.216.217-.216h2.598c.109 0 .163.08.163.216v2.68c0 .108-.054.19-.163.19h-2.625Zm-.027 15.337V14.369h2.68V27.82h-2.68ZM108.424 16.561V14.37h2.165v-1.334c0-2.842 1.408-4.386 4.25-4.386 1.028 0 1.705.163 2.246.298v2.057c-.514-.162-1.137-.243-1.759-.243-1.624 0-2.192.65-2.192 2.464v.034l-.081 1.11h3.139v2.192h-3.139l.081 1.218v10.042h-2.545v-11.26h-2.165Z"/><path d="M117.868 33.289c-.568 0-1.272-.163-1.57-.298v-2.003c.379.08.948.162 1.381.162 1.516 0 2.192-.73 2.815-2.95l-5.224-13.831h2.869l2.706 8.201.709 3.149a.126.126 0 0 0 .246-.003l.643-3.146 2.544-8.201h2.815l-5.197 14.751c-.866 2.463-2.057 4.168-4.737 4.168ZM137.558 27.821 131.736 9.42h2.923l3.616 12.447.73 3.665a.105.105 0 0 0 .205 0l.743-3.665 3.738-12.447h2.896l-5.971 18.402h-3.058ZM147.544 12.505c-.135 0-.19-.081-.19-.19v-2.68c0-.135.082-.216.217-.216h2.598c.109 0 .163.081.163.217v2.68c0 .108-.054.189-.163.189h-2.625Zm-.027 15.296V14.349h2.68V27.8h-2.68ZM151.229 16.561V14.37h2.327v-3.357l2.409-1.109v3.464l-.099.923a.07.07 0 0 0 .071.079h3.439v2.192h-3.447a.065.065 0 0 0-.064.072l.101.957v6.117c0 1.732.352 2.084 1.813 2.084.704 0 1.354-.135 2.03-.352v2.03a8.141 8.141 0 0 1-2.923.569c-2.463 0-3.464-1.002-3.464-3.925V16.56h-2.193ZM166.165 28.119c-4.088 0-6.388-2.653-6.361-7.038 0-4.385 2.436-7.064 6.307-7.064 4.141 0 5.819 2.842 5.791 6.631l-.027 1.002h-9.392c.19 3.059 1.678 4.385 3.844 4.385 1.569 0 2.76-.758 3.329-1.786l1.813 1.272c-1.028 1.461-2.68 2.598-5.305 2.598h.001Zm-.136-12.072c-1.841 0-3.275 1.082-3.464 3.843h6.577v-.108c0-2.274-.839-3.736-3.113-3.736ZM178.532 27.82V9.42h5.63c4.575 0 6.577 1.894 6.577 5.494 0 3.6-2.598 6.063-7.01 6.063h-2.463v6.843h-2.734Zm2.734-16.235v7.2h2.382c3.058 0 4.303-1.543 4.303-3.6 0-2.599-1.11-3.6-4.276-3.6h-2.409ZM191.827 27.821V9.405h2.652v18.416h-2.652ZM200.135 28.038c-2.869 0-4.141-1.706-4.141-4.98v-8.69h2.734v8.256c0 2.274.677 3.167 2.246 3.167 1.787 0 3.194-1.786 3.302-4.276v-7.146h2.734V27.82h-2.544v-1.57l.342-2.227a.12.12 0 0 0-.238-.04c-.249 1.387-1.819 4.08-4.435 4.053ZM213.555 23.896c-.542 0-1.056-.027-1.543-.135-1.002.162-1.57.622-1.57 1.11 0 .676.433 1.136 2.03 1.326.785.08 2.463.243 3.384.297 3.085.352 4.628 1.245 4.628 3.465 0 2.544-2.544 4.412-6.983 4.412h-.217c-4.087 0-5.928-1.327-5.928-3.357 0-1.346 1.135-2.436 3.151-2.865.034-.007.034-.055 0-.063-1.328-.303-2.258-1.176-2.258-2.35 0-1.174.808-1.946 2.449-2.358.032-.008.036-.052.006-.066-1.677-.826-2.645-2.426-2.645-4.288 0-2.843 2.057-4.98 5.603-4.98 2.166 0 3.762.784 4.683 2.056.324-1.353 1.245-1.894 2.436-1.894.216 0 .46.054.541.08v2.545c-.109-.054-.325-.135-.677-.135-.568 0-1.245.108-1.705.568.189.514.298 1.056.298 1.651 0 2.95-2.03 4.98-5.684 4.98l.001.001Zm.162-1.867c2.111 0 3.005-1.3 3.005-3.086 0-1.786-.92-3.086-3.059-3.086-2.138 0-2.977 1.408-2.977 3.113s.92 3.059 3.031 3.059Zm1.272 6.685c-.839-.108-2.273-.19-3.275-.243-1.299.27-1.976.974-1.949 1.894 0 1.218 1.3 2.057 3.871 2.057h.298c3.085 0 4.114-1.055 4.114-2.246 0-1.056-1.164-1.272-3.059-1.462ZM222.433 12.484c-.136 0-.19-.08-.19-.19V9.616c0-.135.081-.216.217-.216h2.598c.108 0 .162.08.162.216v2.68c0 .108-.054.19-.162.19h-2.625Zm-.027 15.337V14.369h2.679V27.82h-2.679ZM229.237 14.369v1.84c0 .256-.198 1.609-.254 1.985a.085.085 0 0 0 .165.037c.64-2.195 2.494-4.16 4.907-4.16 2.653 0 4.088 1.678 4.088 4.926v8.824h-2.734v-8.2c0-2.356-.92-3.222-2.463-3.222-1.922 0-3.573 1.705-3.627 4.602v6.82h-2.707V14.37h2.626-.001Z"/></g><defs><clipPath id="a"><path fill="#fff" d="M49.27 8.65H245.99V34.37H49.27z"/></clipPath></defs></svg>