<svg xmlns="http://www.w3.org/2000/svg" fill="none" viewBox="0 0 46 45">
  <g fill="#fff" clip-path="url(#smart-icon-clip-path)">
    <path d="M30.459 7.968H.658A.657.657 0 0 1 0 7.31V.658C0 .294.294 0 .658 0h29.801c.364 0 .658.294.658.658V7.31a.657.657 0 0 1-.658.658ZM1.316 6.652H29.8V1.316H1.316v5.336Z"/>
    <path d="M3.75 4.973a.665.665 0 0 1-.465-.193.65.65 0 0 1-.193-.465c0-.04 0-.083.013-.127s.022-.084.04-.123a.572.572 0 0 1 .06-.114.571.571 0 0 1 .08-.1.679.679 0 0 1 .93 0 .665.665 0 0 1 .192.464.665.665 0 0 1-.29.548c-.039.022-.074.044-.113.061a.67.67 0 0 1-.254.048ZM8.42 4.315a.657.657 0 1 1 1.314-.002.657.657 0 0 1-1.314.002ZM14.406 4.973a.596.596 0 0 1-.127-.013 1 1 0 0 1-.123-.036.697.697 0 0 1-.215-.144.657.657 0 0 1 0-.93.679.679 0 0 1 .93 0 .558.558 0 0 1 .14.215.572.572 0 0 1 .053.25.65.65 0 0 1-.193.465.665.665 0 0 1-.465.193ZM23 45a.66.66 0 0 1-.658-.658v-7.454c0-.364.294-.658.658-.658h7.454a.655.655 0 0 1 .465 1.123l-7.455 7.454A.654.654 0 0 1 23 45Zm.657-7.455v5.21l5.21-5.21h-5.21Z"/>
    <path d="M23 45H.658A.657.657 0 0 1 0 44.342V7.31c0-.364.294-.658.658-.658h29.801c.364 0 .658.294.658.658v6.657a.657.657 0 0 1-.658.657H8.406V29.32h22.049c.364 0 .657.294.657.658v6.915a.657.657 0 0 1-.657.658h-6.797v6.797a.657.657 0 0 1-.658.657V45ZM1.316 43.684h21.026v-6.796c0-.364.294-.658.658-.658h6.797v-5.6H7.748a.657.657 0 0 1-.657-.658V13.967c0-.364.294-.658.657-.658h22.049V7.968H1.316v35.72-.004Z"/>
    <path d="M44.882 30.63H7.749a.657.657 0 0 1-.658-.658V13.967c0-.364.294-.658.658-.658h37.133c.364 0 .657.294.657.658v16.01a.657.657 0 0 1-.657.657v-.004ZM8.406 29.314h35.818V14.62H8.406v14.694Z"/>
    <path d="M14.225 25.578a2.811 2.811 0 1 1 0-5.621 2.811 2.811 0 0 1 0 5.621Zm0-4.306c-.825 0-1.495.671-1.495 1.495 0 .825.67 1.496 1.495 1.496.824 0 1.495-.671 1.495-1.496 0-.824-.67-1.495-1.495-1.495ZM21.588 25.578a2.811 2.811 0 1 1 0-5.621 2.811 2.811 0 0 1 0 5.621Zm0-4.306c-.824 0-1.495.671-1.495 1.495 0 .825.67 1.496 1.495 1.496.825 0 1.495-.671 1.495-1.496 0-.824-.67-1.495-1.495-1.495ZM28.95 25.578a2.811 2.811 0 1 1 0-5.621 2.811 2.811 0 0 1 0 5.621Zm0-4.306c-.824 0-1.495.671-1.495 1.495 0 .825.671 1.496 1.496 1.496.824 0 1.495-.671 1.495-1.496 0-.824-.671-1.495-1.495-1.495ZM36.313 25.578a2.811 2.811 0 1 1 0-5.621 2.811 2.811 0 0 1 0 5.621Zm0-4.306c-.825 0-1.495.671-1.495 1.495 0 .825.67 1.496 1.495 1.496.824 0 1.495-.671 1.495-1.496 0-.824-.67-1.495-1.495-1.495Z"/>
  </g>
  <defs>
    <clipPath id="smart-icon-clip-path">
      <path fill="#fff" d="M0 0h45.539v45H0z"/>
    </clipPath>
  </defs>
</svg>