<svg xmlns="http://www.w3.org/2000/svg" fill="none" viewBox="0 0 45 45">
  <g fill="#fff" clip-path="url(#zconfig-icon-clip-path)">
    <path d="M3.62 4.5a.601.601 0 0 1-.247-.052.621.621 0 0 1-.212-.139.649.649 0 0 1 0-.918.666.666 0 0 1 .918 0A.649.649 0 0 1 3.62 4.5ZM8.245 3.85a.649.649 0 1 1 1.298-.002.649.649 0 0 1-1.298.002ZM14.17 4.5a.6.6 0 0 1-.247-.052.62.62 0 0 1-.212-.139.649.649 0 1 1 .459.19Z"/>
    <path d="M44.064 7.717H.684c-.36 0-.65-.29-.65-.65V.65c0-.36.29-.65.65-.65h43.38c.36 0 .65.29.65.65v6.418c0 .36-.29.65-.65.65ZM1.334 6.418h42.08V1.3H1.334v5.119Z"/>
    <path d="M38.959 45H.649C.29 45 0 44.71 0 44.35V6.998c0-.36.29-.65.65-.65h43.38c.36 0 .65.29.65.65V39.28c0 .36-.29.65-.65.65h-4.422v4.421c0 .36-.29.65-.65.65Zm-37.66-1.3h37.01v-4.42c0-.36.29-.65.65-.65h4.421V7.648H1.3v36.053Z"/>
    <path d="M38.96 45a.652.652 0 0 1-.65-.65v-5.07c0-.36.29-.65.65-.65h5.07a.646.646 0 0 1 .459 1.109l-5.07 5.07a.646.646 0 0 1-.46.191Zm.649-5.071v2.85l2.854-2.85h-2.854ZM22.372 38.807c-.36 0-.65-.29-.65-.65v-3.035a10.625 10.625 0 0 1-4.002-1.074l-1.519 2.637a.658.658 0 0 1-.394.303.658.658 0 0 1-.494-.065 14.14 14.14 0 0 1-5.166-5.153.653.653 0 0 1 .238-.888l2.633-1.529c-.628-1.251-1-2.615-1.087-4.006L8.9 25.36a.65.65 0 0 1-.65-.65c0-2.494.65-4.923 1.875-7.054a.65.65 0 0 1 .888-.238l2.637 1.52a10.512 10.512 0 0 1 2.92-2.932l-1.534-2.633a.633.633 0 0 1-.065-.494.643.643 0 0 1 .303-.394 14.026 14.026 0 0 1 4.877-1.728c.749-.117 1.48-.177 2.178-.181a.65.65 0 0 1 .65.65l.008 3.035c1.4.087 2.755.446 4.002 1.065l1.515-2.642a.647.647 0 0 1 .888-.238 14.174 14.174 0 0 1 5.18 5.14.646.646 0 0 1-.234.889l-2.629 1.533a10.435 10.435 0 0 1 1.096 4.014l3.031-.026a.73.73 0 0 1 .464.187c.121.12.19.29.19.463v.043c0 2.482-.654 4.92-1.888 7.06a.65.65 0 0 1-.888.237l-2.637-1.524a10.511 10.511 0 0 1-2.923 2.927l1.529 2.633a.647.647 0 0 1-.239.888 14.117 14.117 0 0 1-7.054 1.897h-.018Zm-4.898-6.28c.113 0 .226.031.325.087a9.165 9.165 0 0 0 2.585 1.005c.659.147 1.321.22 1.975.22.36 0 .659.291.659.65v2.997a12.788 12.788 0 0 0 5.188-1.394l-1.507-2.603a.654.654 0 0 1 .233-.888 9.257 9.257 0 0 0 3.348-3.347.65.65 0 0 1 .888-.239l2.603 1.508a12.841 12.841 0 0 0 1.39-5.228l-2.993.026a.598.598 0 0 1-.463-.186.649.649 0 0 1-.19-.459 9.135 9.135 0 0 0-1.252-4.586.654.654 0 0 1 .23-.892l2.598-1.516a12.878 12.878 0 0 0-3.807-3.78l-1.498 2.607a.659.659 0 0 1-.394.303.658.658 0 0 1-.494-.065 9.132 9.132 0 0 0-4.543-1.217c-.36 0-.68-.286-.68-.646l-.009-2.996c-.433.026-.874.073-1.33.147-1.359.216-2.654.636-3.853 1.256l1.515 2.598a.65.65 0 0 1-.233.888 9.192 9.192 0 0 0-3.34 3.356.65.65 0 0 1-.887.239l-2.607-1.499a12.836 12.836 0 0 0-1.377 5.184l2.992-.013a.65.65 0 0 1 .65.65c0 1.598.433 3.178 1.242 4.577a.634.634 0 0 1 .066.494.643.643 0 0 1-.304.394l-2.602 1.511a12.93 12.93 0 0 0 3.798 3.79l1.502-2.608a.658.658 0 0 1 .563-.324h.013Z"/>
    <path d="M21.485 27.998a.649.649 0 0 1-.55-.429l-1.564-2.412c-.12-.338-.1-.65.278-.897.376-.246.749.013.991.295l1.035 1.208 2.551-4.69a.646.646 0 0 1 .88-.26.646.646 0 0 1 .26.88l-3.249 5.967a.657.657 0 0 1-.623.338h-.01Z"/>
  </g>
  <defs>
    <clipPath id="zconfig-icon-clip-path">
      <path fill="#fff" d="M0 0h45v45H0z"/>
    </clipPath>
  </defs>
</svg>