<svg fill="none" viewBox="0 0 39 44" xmlns="http://www.w3.org/2000/svg" class="editions-logo__shopify-bag"><path d="M33.962 9.018a.417.417 0 0 0-.379-.35c-.156-.015-3.223-.06-3.223-.06s-2.563-2.49-2.816-2.743c-.254-.254-.747-.177-.941-.122-.004 0-.483.15-1.289.4a8.871 8.871 0 0 0-.618-1.515c-.913-1.743-2.25-2.663-3.865-2.667h-.007c-.111 0-.222.01-.337.021-.049-.055-.094-.115-.146-.167-.705-.753-1.608-1.118-2.688-1.087-2.087.06-4.164 1.567-5.848 4.244-1.188 1.882-2.087 4.25-2.344 6.081-2.396.743-4.074 1.26-4.109 1.271-1.208.379-1.246.417-1.406 1.556C3.824 14.741.66 39.21.66 39.21l26.522 4.588 11.495-2.858c.003.004-4.689-31.703-4.716-31.922Zm-9.978-2.462c-.611.187-1.306.403-2.06.639-.013-1.056-.142-2.528-.635-3.796 1.587.295 2.365 2.087 2.695 3.157ZM20.54 7.622l-4.428 1.372c.427-1.64 1.24-3.272 2.237-4.338.371-.396.889-.84 1.504-1.094.576 1.202.701 2.907.687 4.06ZM17.7 2.114c.489-.01.902.097 1.253.33-.563.292-1.108.712-1.622 1.26-1.326 1.421-2.34 3.63-2.747 5.759l-3.636 1.125c.719-3.348 3.529-8.38 6.751-8.474Z" fill="url(#a)"/><path d="M33.962 9.018a.417.417 0 0 0-.379-.35c-.156-.015-3.223-.06-3.223-.06s-2.563-2.49-2.816-2.743c-.254-.254-.747-.177-.941-.122-.004 0-.483.15-1.289.4a8.871 8.871 0 0 0-.618-1.515c-.913-1.743-2.25-2.663-3.865-2.667h-.007c-.111 0-.222.01-.337.021-.049-.055-.094-.115-.146-.167-.705-.753-1.608-1.118-2.688-1.087-2.087.06-4.164 1.567-5.848 4.244-1.188 1.882-2.087 4.25-2.344 6.081-2.396.743-4.074 1.26-4.109 1.271-1.208.379-1.246.417-1.406 1.556C3.824 14.741.66 39.21.66 39.21l26.522 4.588 11.495-2.858c.003.004-4.689-31.703-4.716-31.922Zm-9.978-2.462c-.611.187-1.306.403-2.06.639-.013-1.056-.142-2.528-.635-3.796 1.587.295 2.365 2.087 2.695 3.157ZM20.54 7.622l-4.428 1.372c.427-1.64 1.24-3.272 2.237-4.338.371-.396.889-.84 1.504-1.094.576 1.202.701 2.907.687 4.06ZM17.7 2.114c.489-.01.902.097 1.253.33-.563.292-1.108.712-1.622 1.26-1.326 1.421-2.34 3.63-2.747 5.759l-3.636 1.125c.719-3.348 3.529-8.38 6.751-8.474Z" fill="#fff" fill-opacity=".1"/><path d="M33.583 8.667c-.156-.014-3.223-.06-3.223-.06s-2.563-2.49-2.816-2.743a.631.631 0 0 0-.358-.163v38.097l11.492-2.858-4.72-31.922a.417.417 0 0 0-.375-.351Z" fill="url(#b)"/><path d="M33.583 8.667c-.156-.014-3.223-.06-3.223-.06s-2.563-2.49-2.816-2.743a.631.631 0 0 0-.358-.163v38.097l11.492-2.858-4.72-31.922a.417.417 0 0 0-.375-.351Z" fill="#fff" fill-opacity=".4"/><path d="m20.817 14.577-1.334 4.994s-1.49-.677-3.254-.566c-2.587.164-2.615 1.796-2.59 2.206.142 2.233 6.018 2.722 6.348 7.952.26 4.116-2.184 6.932-5.702 7.154-4.223.268-6.55-2.226-6.55-2.226l.896-3.81s2.34 1.768 4.216 1.647c1.222-.077 1.66-1.073 1.618-1.778-.184-2.914-4.97-2.744-5.272-7.53-.253-4.028 2.393-8.112 8.231-8.48 2.24-.136 3.393.437 3.393.437Z" fill="#fff"/><defs><radialGradient cx="0" cy="0" gradientTransform="matrix(45.33948 79.2891 -71.42537 40.84281 -10.388 -22.088)" gradientUnits="userSpaceOnUse" id="a" r="1"><stop stop-color="#CEF141"/><stop offset=".586" stop-color="#79D7EC"/><stop offset="1" stop-color="#130FD7"/></radialGradient><radialGradient cx="0" cy="0" gradientTransform="rotate(-98.682 37.062 9.771) scale(91.0466 41.9746)" gradientUnits="userSpaceOnUse" id="b" r="1"><stop stop-color="#130FD7"/><stop offset=".428" stop-color="#21C9AB"/><stop offset=".915" stop-color="#CEF141"/></radialGradient></defs></svg>